<?xml version="1.0" encoding="UTF-8" standalone="no"?>
<!-- Created with Inkscape (http://www.inkscape.org/) -->

<svg
   width="1500"
   height="500"
   viewBox="0 0 396.87499 132.29167"
   version="1.1"
   id="svg3999"
   inkscape:version="1.4.2 (1:1.4.2+202505120738+ebf0e940d0)"
   sodipodi:docname="logo-cover.svg"
   inkscape:export-filename="x-cover.png"
   inkscape:export-xdpi="95.991402"
   inkscape:export-ydpi="95.991402"
   xml:space="preserve"
   xmlns:inkscape="http://www.inkscape.org/namespaces/inkscape"
   xmlns:sodipodi="http://sodipodi.sourceforge.net/DTD/sodipodi-0.dtd"
   xmlns:xlink="http://www.w3.org/1999/xlink"
   xmlns="http://www.w3.org/2000/svg"
   xmlns:svg="http://www.w3.org/2000/svg"><sodipodi:namedview
     id="namedview4001"
     pagecolor="#ffffff"
     bordercolor="#666666"
     borderopacity="1.0"
     inkscape:showpageshadow="2"
     inkscape:pageopacity="0.0"
     inkscape:pagecheckerboard="0"
     inkscape:deskcolor="#d1d1d1"
     inkscape:document-units="mm"
     showgrid="false"
     inkscape:zoom="0.464"
     inkscape:cx="750"
     inkscape:cy="155.17241"
     inkscape:window-width="1920"
     inkscape:window-height="1011"
     inkscape:window-x="0"
     inkscape:window-y="1112"
     inkscape:window-maximized="1"
     inkscape:current-layer="layer1" /><defs
     id="defs3996" /><g
     inkscape:label="Layer 1"
     inkscape:groupmode="layer"
     id="layer1"
     transform="translate(-9.9289294,-1.647988)"><rect
       style="fill:#afab9c;fill-opacity:1;stroke-width:4.76249"
       id="rect3"
       width="396.875"
       height="132.29166"
       x="9.9289293"
       y="1.647988" /><image
       width="132.29167"
       height="132.29167"
       preserveAspectRatio="none"
       xlink:href="45-degree-fabric-dark.png"
       id="image1"
       x="9.9289293"
       y="1.647988"
       style="stroke-width:0.63" /><image
       width="132.29167"
       height="132.29167"
       preserveAspectRatio="none"
       xlink:href="45-degree-fabric-dark.png"
       id="image3"
       x="142.2206"
       y="1.647988"
       style="stroke-width:0.63" /><image
       width="132.29167"
       height="132.29167"
       preserveAspectRatio="none"
       xlink:href="45-degree-fabric-dark.png"
       id="image4"
       x="274.51227"
       y="1.647988"
       style="stroke-width:0.63" /><g
       id="g4"
       transform="translate(23.46839)"><g
         id="g3"
         transform="matrix(1.5873016,0,0,1.5873016,-5.8312761,-2.2277373)"
         style="stroke-width:0.63"><path
           style="fill:#666666;fill-opacity:1;stroke:none;stroke-width:0.837894;stroke-opacity:1;stop-color:#000000"
           d="m 86.826618,11.524735 c -0.764278,0.02475 -1.55446,-0.04594 -2.302986,0.03684 -0.584995,0.905118 -1.096003,1.883377 -1.652678,2.81649 0.02789,0.305476 0.511408,0.262367 0.739972,0.420936 1.308894,0.576641 2.079621,1.862328 2.80891,3.018195 0.220958,0.366649 0.366485,0.78038 0.618862,1.126005 0.320913,0.04295 0.210696,-0.466726 0.311373,-0.668659 0.408433,-2.091852 0.770625,-4.221712 1.623147,-6.189502 0.379219,-0.411504 0.107801,-0.700002 -0.390216,-0.561994 -0.585462,6.07e-4 -1.170923,0.0011 -1.756384,0.0017 z"
           id="path2672" /><path
           style="fill:#535353;fill-opacity:1;stroke:none;stroke-width:0.8379;stroke-opacity:1;stop-color:#000000"
           d="m 90.040236,11.567165 c -0.29543,0.113202 -0.377616,0.487007 -0.529864,0.734959 -0.694588,1.535847 -0.996361,3.208254 -1.35402,4.84413 -0.211572,1.080171 -0.413922,2.16798 -0.547981,3.257782 1.188087,2.986601 2.109916,6.078646 2.740145,9.228676 0.287892,0.270695 0.251274,-0.329021 0.286678,-0.512486 0.395802,-3.965698 0.39944,-7.959878 0.290326,-11.940032 -0.08855,-1.806006 -0.11913,-3.650494 -0.657842,-5.392464 -0.03798,-0.09865 -0.100843,-0.229151 -0.227442,-0.220565 z"
           id="path2674" /><path
           style="fill:#cecece;fill-opacity:1;stroke:#000000;stroke-width:0.8379;stroke-opacity:1;stop-color:#000000"
           d="m 75.508871,52.07442 h 11.475845 c 1.134339,0 3.690115,-1.114475 3.690115,-3.66676 V 35.529382 c 0,-7.652752 -3.861325,-16.898638 -4.929997,-18.282543 -1.068671,-1.383905 -1.622015,-2.55804 -4.458875,-2.55804 -1.41843,0 -2.862702,-0.0058 -3.952366,-0.01162 -1.089665,-0.0058 -1.824722,-0.01162 -1.824722,-0.01162 0,0 -0.735058,0.0058 -1.824722,0.01162 -1.089664,0.0058 -2.533937,0.01162 -3.952366,0.01162 -2.83686,0 -3.390204,1.174135 -4.458876,2.55804 -1.068671,1.383905 -4.929996,10.629791 -4.929996,18.282543 V 48.40766 c 0,2.552285 2.555775,3.66676 3.690115,3.66676 z"
           id="path2676"
           class="UnoptimicedTransforms"
           sodipodi:nodetypes="czzszsscssssscc" /><rect
           style="fill:#e8e8e8;fill-opacity:1;stroke:#202020;stroke-width:0.8379;stroke-opacity:1;stop-color:#000000"
           id="rect2678"
           width="22.834139"
           height="19.12001"
           x="64.091805"
           y="30.367908"
           rx="1.938617"
           ry="2.3280153" /><rect
           style="fill:#74726a;fill-opacity:1;stroke:#202020;stroke-width:0.8379;stroke-opacity:1;stop-color:#000000"
           id="rect2680"
           width="13.604667"
           height="7.6012969"
           x="68.706535"
           y="19.811121"
           rx="1.1550354"
           ry="0.92551911" /><path
           id="path2682"
           style="fill:none;fill-opacity:1;stroke:#000000;stroke-width:0.8379;stroke-opacity:1;stop-color:#000000"
           d="m 82.313989,14.750236 2.047923,-3.524658 h 5.758368 m -2.811321,9.163134 c 0,0 1.273335,-9.163134 2.811321,-9.163134 1.53798,0 1.432284,16.171836 0.442163,20.23796"
           sodipodi:nodetypes="ccccsc" /><path
           d="m 76.166241,40.721097 -1.432126,0.06999 q -0.09391,0 -0.09391,-0.303275 0,-0.303276 0.211297,-1.026472 0.211298,-0.723195 0.539983,-1.049799 0.328684,-0.326605 5.540686,-0.326605 1.338216,0 1.338216,0.116644 0,0.536565 -0.305207,1.46972 -0.28173,0.909827 -0.493027,1.213103 -0.02348,6.27547 -0.164342,6.508759 -0.117388,0.233289 -0.84519,0.513236 -0.727802,0.303275 -1.244306,0.303275 -0.493028,0 -0.493028,-0.06999 0,-1.25976 -0.117387,-1.516378 l -0.04695,-0.04666 -0.07043,0.04666 q -1.385172,1.376404 -3.615533,1.376404 -3.052073,0 -4.601587,-1.959627 -1.526036,-1.959626 -1.526036,-5.062368 0,-2.612835 0.962576,-4.735764 0.610415,-1.329747 1.549515,-2.30956 0.962576,-0.979813 2.629478,-1.633022 1.690379,-0.653209 3.897262,-0.653209 0.493028,0 1.361694,0.116645 0.868667,0.116644 0.915622,0.186631 0.07043,0.06999 0.07043,0.513236 0,0.443249 -0.117388,1.213102 -0.117387,0.769853 -0.258252,0.909826 -0.727802,-0.373262 -2.465136,-0.373262 -2.488613,0 -3.967695,1.656351 -1.479081,1.656351 -1.479081,4.852408 0,2.052942 0.845189,3.289373 0.845189,1.236432 2.371226,1.236432 1.526037,0 2.465136,-0.746525 0.962577,-0.746524 0.962577,-1.25976 v -0.746524 q 0,-1.423063 -0.140865,-1.563036 -0.164343,-0.20996 -2.183406,-0.20996 z"
           id="path5849"
           style="font-size:40.7619px;line-height:1;font-family:'Bubblegum Sans';-inkscape-font-specification:'Bubblegum Sans, Normal';font-variant-ligatures:none;text-align:center;letter-spacing:0px;text-anchor:middle;stroke-width:0.166687" /><path
           style="fill:#666666;fill-opacity:1;stroke:none;stroke-width:0.837894;stroke-opacity:1;stop-color:#000000"
           d="m 64.191125,11.524735 c 0.764279,0.02475 1.554459,-0.04594 2.302985,0.03684 0.584997,0.905117 1.096006,1.883377 1.652677,2.81649 -0.02788,0.305476 -0.511406,0.262366 -0.739972,0.420935 -1.30889,0.576642 -2.079619,1.862329 -2.808908,3.018196 -0.220958,0.366648 -0.366487,0.780379 -0.618864,1.126004 -0.320911,0.04295 -0.210694,-0.466725 -0.311373,-0.668659 -0.408429,-2.091851 -0.770626,-4.221711 -1.623142,-6.189501 -0.379222,-0.411505 -0.107804,-0.700003 0.390211,-0.561994 0.585464,6.3e-4 1.170922,0.0011 1.756386,0.0017 z"
           id="path2688" /><path
           style="fill:#535353;fill-opacity:1;stroke:none;stroke-width:0.8379;stroke-opacity:1;stop-color:#000000"
           d="m 60.97751,11.567165 c 0.295424,0.113202 0.377615,0.487007 0.52986,0.73496 0.694586,1.535846 0.996364,3.208253 1.354022,4.844129 0.21157,1.080171 0.413924,2.16798 0.54798,3.257782 -1.188086,2.986601 -2.109915,6.078646 -2.740143,9.228676 -0.287896,0.270695 -0.251277,-0.329021 -0.286681,-0.512486 -0.395799,-3.965698 -0.399439,-7.959878 -0.290328,-11.940032 0.08855,-1.806006 0.119133,-3.650494 0.657846,-5.392464 0.03796,-0.09865 0.10084,-0.229151 0.227444,-0.220565 z"
           id="path2690" /><path
           id="path2692"
           style="fill:none;fill-opacity:1;stroke:#000000;stroke-width:0.8379;stroke-opacity:1;stop-color:#000000"
           d="m 68.703753,14.750236 -2.047924,-3.524658 h -5.758367 m 2.81132,9.163134 c 0,0 -1.273335,-9.163134 -2.81132,-9.163134 -1.53798,0 -1.432285,16.171836 -0.442164,20.23796"
           sodipodi:nodetypes="ccccsc" /><path
           style="fill:none;fill-opacity:1;stroke:#000000;stroke-width:1.26;stroke-dasharray:none;stroke-opacity:1;stop-color:#000000"
           d="m 73.684146,14.677175 c 0,0 0,-1.88306 1.216482,-1.88306 1.216481,0 0,0 1.216481,0 1.216481,0 1.216481,1.88306 1.216481,1.88306"
           id="path2694"
           sodipodi:nodetypes="czzc" /></g><g
         id="g2"
         transform="matrix(1.5873016,0,0,1.5873016,-5.8312761,7.9411184)"
         style="stroke-width:0.63"><text
           xml:space="preserve"
           style="font-style:normal;font-variant:normal;font-weight:normal;font-stretch:normal;font-size:20.1608px;line-height:1.25;font-family:'Bubblegum Sans';-inkscape-font-specification:'Bubblegum Sans, Normal';font-variant-ligatures:none;font-variant-caps:normal;font-variant-numeric:normal;font-variant-east-asian:normal;text-align:center;text-anchor:middle;stroke-width:0.166687"
           x="137.1955"
           y="37.939999"
           id="text1"
           transform="scale(1.0031798,0.9968303)"><tspan
             sodipodi:role="line"
             id="tspan1"
             style="font-style:normal;font-variant:normal;font-weight:normal;font-stretch:normal;font-size:20.1608px;font-family:'Bubblegum Sans';-inkscape-font-specification:'Bubblegum Sans, Normal';font-variant-ligatures:none;font-variant-caps:normal;font-variant-numeric:normal;font-variant-east-asian:normal;stroke-width:0.166687"
             x="137.1955"
             y="37.939999">GatherPack</tspan></text><text
           xml:space="preserve"
           style="font-style:normal;font-variant:normal;font-weight:normal;font-stretch:normal;font-size:10.2827px;line-height:1.25;font-family:'Bubblegum Sans';-inkscape-font-specification:'Bubblegum Sans, Normal';font-variant-ligatures:none;font-variant-caps:normal;font-variant-numeric:normal;font-variant-east-asian:normal;text-align:center;text-anchor:middle;stroke-width:0.166687"
           x="137.61514"
           y="18.398985"
           id="text2"
           transform="scale(1.0031798,0.99683028)"><tspan
             sodipodi:role="line"
             id="tspan2"
             style="font-style:normal;font-variant:normal;font-weight:normal;font-stretch:normal;font-size:10.2827px;font-family:'Bubblegum Sans';-inkscape-font-specification:'Bubblegum Sans, Normal';font-variant-ligatures:none;font-variant-caps:normal;font-variant-numeric:normal;font-variant-east-asian:normal;stroke-width:0.166687"
             x="137.61514"
             y="18.398985">get together with</tspan></text></g></g></g></svg>
